TITLE ""
FILE "LR_black_phrase_A02.mp3" MP3
  TRACK 01 AUDIO
    TITLE "LR_black_phrase_A02_001"
    INDEX 01 00:00:00
  TRACK 02 AUDIO
    TITLE "LR_black_phrase_A02_002"
    INDEX 01 00:00:18
  TRACK 03 AUDIO
    TITLE "LR_black_phrase_A02_003"
    INDEX 01 00:01:43
  TRACK 04 AUDIO
    TITLE "LR_black_phrase_A02_004"
    INDEX 01 00:02:07
  TRACK 05 AUDIO
    TITLE "LR_black_phrase_A02_005"
    INDEX 01 00:04:26
  TRACK 06 AUDIO
    TITLE "LR_black_phrase_A02_006"
    INDEX 01 00:05:29
  TRACK 07 AUDIO
    TITLE "LR_black_phrase_A02_007"
    INDEX 01 00:07:12
  TRACK 08 AUDIO
    TITLE "LR_black_phrase_A02_008"
    INDEX 01 00:07:51
  TRACK 09 AUDIO
    TITLE "LR_black_phrase_A02_009"
    INDEX 01 00:09:70
  TRACK 10 AUDIO
    TITLE "LR_black_phrase_A02_010"
    INDEX 01 00:10:22
  TRACK 11 AUDIO
    TITLE "LR_black_phrase_A02_011"
    INDEX 01 00:12:39
  TRACK 12 AUDIO
    TITLE "LR_black_phrase_A02_012"
    INDEX 01 00:13:34
  TRACK 13 AUDIO
    TITLE "LR_black_phrase_A02_013"
    INDEX 01 00:14:40
  TRACK 14 AUDIO
    TITLE "LR_black_phrase_A02_014"
    INDEX 01 00:15:06
  TRACK 15 AUDIO
    TITLE "LR_black_phrase_A02_015"
    INDEX 01 00:16:43
  TRACK 16 AUDIO
    TITLE "LR_black_phrase_A02_016"
    INDEX 01 00:17:42
  TRACK 17 AUDIO
    TITLE "LR_black_phrase_A02_017"
    INDEX 01 00:20:11
  TRACK 18 AUDIO
    TITLE "LR_black_phrase_A02_018"
    INDEX 01 00:20:50
  TRACK 19 AUDIO
    TITLE "LR_black_phrase_A02_019"
    INDEX 01 00:22:51
  TRACK 20 AUDIO
    TITLE "LR_black_phrase_A02_020"
    INDEX 01 00:23:05
  TRACK 21 AUDIO
    TITLE "LR_black_phrase_A02_021"
    INDEX 01 00:25:06
  TRACK 22 AUDIO
    TITLE "LR_black_phrase_A02_022"
    INDEX 01 00:26:10
  TRACK 23 AUDIO
    TITLE "LR_black_phrase_A02_023"
    INDEX 01 00:27:37
  TRACK 24 AUDIO
    TITLE "LR_black_phrase_A02_024"
    INDEX 01 00:28:03
  TRACK 25 AUDIO
    TITLE "LR_black_phrase_A02_025"
    INDEX 01 00:30:70
  TRACK 26 AUDIO
    TITLE "LR_black_phrase_A02_026"
    INDEX 01 00:31:70
  TRACK 27 AUDIO
    TITLE "LR_black_phrase_A02_027"
    INDEX 01 00:34:07
  TRACK 28 AUDIO
    TITLE "LR_black_phrase_A02_028"
    INDEX 01 00:34:44
  TRACK 29 AUDIO
    TITLE "LR_black_phrase_A02_029"
    INDEX 01 00:36:55
  TRACK 30 AUDIO
    TITLE "LR_black_phrase_A02_030"
    INDEX 01 00:37:11
  TRACK 31 AUDIO
    TITLE "LR_black_phrase_A02_031"
    INDEX 01 00:39:22
  TRACK 32 AUDIO
    TITLE "LR_black_phrase_A02_032"
    INDEX 01 00:40:29
  TRACK 33 AUDIO
    TITLE "LR_black_phrase_A02_033"
    INDEX 01 00:41:43
  TRACK 34 AUDIO
    TITLE "LR_black_phrase_A02_034"
    INDEX 01 00:42:19
  TRACK 35 AUDIO
    TITLE "LR_black_phrase_A02_035"
    INDEX 01 00:43:53
  TRACK 36 AUDIO
    TITLE "LR_black_phrase_A02_036"
    INDEX 01 00:44:51
  TRACK 37 AUDIO
    TITLE "LR_black_phrase_A02_037"
    INDEX 01 00:46:44
  TRACK 38 AUDIO
    TITLE "LR_black_phrase_A02_038"
    INDEX 01 00:47:10
  TRACK 39 AUDIO
    TITLE "LR_black_phrase_A02_039"
    INDEX 01 00:49:15
  TRACK 40 AUDIO
    TITLE "LR_black_phrase_A02_040"
    INDEX 01 00:49:48
  TRACK 41 AUDIO
    TITLE "LR_black_phrase_A02_041"
    INDEX 01 00:51:55
  TRACK 42 AUDIO
    TITLE "LR_black_phrase_A02_042"
    INDEX 01 00:52:60
  TRACK 43 AUDIO
    TITLE "LR_black_phrase_A02_043"
    INDEX 01 00:54:06
  TRACK 44 AUDIO
    TITLE "LR_black_phrase_A02_044"
    INDEX 01 00:54:45
  TRACK 45 AUDIO
    TITLE "LR_black_phrase_A02_045"
    INDEX 01 00:56:11
  TRACK 46 AUDIO
    TITLE "LR_black_phrase_A02_046"
    INDEX 01 00:57:10
  TRACK 47 AUDIO
    TITLE "LR_black_phrase_A02_047"
    INDEX 01 00:59:09
  TRACK 48 AUDIO
    TITLE "LR_black_phrase_A02_048"
    INDEX 01 00:59:52
  TRACK 49 AUDIO
    TITLE "LR_black_phrase_A02_049"
    INDEX 01 01:01:32
  TRACK 50 AUDIO
    TITLE "LR_black_phrase_A02_050"
    INDEX 01 01:01:65
  TRACK 51 AUDIO
    TITLE "LR_black_phrase_A02_051"
    INDEX 01 01:03:44
  TRACK 52 AUDIO
    TITLE "LR_black_phrase_A02_052"
    INDEX 01 01:04:49
  TRACK 53 AUDIO
    TITLE "LR_black_phrase_A02_053"
    INDEX 01 01:06:07
  TRACK 54 AUDIO
    TITLE "LR_black_phrase_A02_054"
    INDEX 01 01:06:43
  TRACK 55 AUDIO
    TITLE "LR_black_phrase_A02_055"
    INDEX 01 01:08:08
  TRACK 56 AUDIO
    TITLE "LR_black_phrase_A02_056"
    INDEX 01 01:09:04
  TRACK 57 AUDIO
    TITLE "LR_black_phrase_A02_057"
    INDEX 01 01:10:68
  TRACK 58 AUDIO
    TITLE "LR_black_phrase_A02_058"
    INDEX 01 01:11:22
  TRACK 59 AUDIO
    TITLE "LR_black_phrase_A02_059"
    INDEX 01 01:13:54
  TRACK 60 AUDIO
    TITLE "LR_black_phrase_A02_060"
    INDEX 01 01:14:01
  TRACK 61 AUDIO
    TITLE "LR_black_phrase_A02_061"
    INDEX 01 01:16:31
  TRACK 62 AUDIO
    TITLE "LR_black_phrase_A02_062"
    INDEX 01 01:17:38
  TRACK 63 AUDIO
    TITLE "LR_black_phrase_A02_063"
    INDEX 01 01:18:55
  TRACK 64 AUDIO
    TITLE "LR_black_phrase_A02_064"
    INDEX 01 01:19:20
  TRACK 65 AUDIO
    TITLE "LR_black_phrase_A02_065"
    INDEX 01 01:21:73
  TRACK 66 AUDIO
    TITLE "LR_black_phrase_A02_066"
    INDEX 01 01:22:71
  TRACK 67 AUDIO
    TITLE "LR_black_phrase_A02_067"
    INDEX 01 01:24:42
  TRACK 68 AUDIO
    TITLE "LR_black_phrase_A02_068"
    INDEX 01 01:25:07
  TRACK 69 AUDIO
    TITLE "LR_black_phrase_A02_069"
    INDEX 01 01:27:04
  TRACK 70 AUDIO
    TITLE "LR_black_phrase_A02_070"
    INDEX 01 01:27:33
  TRACK 71 AUDIO
    TITLE "LR_black_phrase_A02_071"
    INDEX 01 01:29:28
  TRACK 72 AUDIO
    TITLE "LR_black_phrase_A02_072"
    INDEX 01 01:30:31
  TRACK 73 AUDIO
    TITLE "LR_black_phrase_A02_073"
    INDEX 01 01:31:64
  TRACK 74 AUDIO
    TITLE "LR_black_phrase_A02_074"
    INDEX 01 01:32:30
  TRACK 75 AUDIO
    TITLE "LR_black_phrase_A02_075"
    INDEX 01 01:35:64
  TRACK 76 AUDIO
    TITLE "LR_black_phrase_A02_076"
    INDEX 01 01:36:59
  TRACK 77 AUDIO
    TITLE "LR_black_phrase_A02_077"
    INDEX 01 01:39:38
  TRACK 78 AUDIO
    TITLE "LR_black_phrase_A02_078"
    INDEX 01 01:40:02
  TRACK 79 AUDIO
    TITLE "LR_black_phrase_A02_079"
    INDEX 01 01:42:64
  TRACK 80 AUDIO
    TITLE "LR_black_phrase_A02_080"
    INDEX 01 01:43:18
  TRACK 81 AUDIO
    TITLE "LR_black_phrase_A02_081"
    INDEX 01 01:46:05
  TRACK 82 AUDIO
    TITLE "LR_black_phrase_A02_082"
    INDEX 01 01:47:08
  TRACK 83 AUDIO
    TITLE "LR_black_phrase_A02_083"
    INDEX 01 01:48:21
  TRACK 84 AUDIO
    TITLE "LR_black_phrase_A02_084"
    INDEX 01 01:48:60
  TRACK 85 AUDIO
    TITLE "LR_black_phrase_A02_085"
    INDEX 01 01:50:59
  TRACK 86 AUDIO
    TITLE "LR_black_phrase_A02_086"
    INDEX 01 01:51:57
  TRACK 87 AUDIO
    TITLE "LR_black_phrase_A02_087"
    INDEX 01 01:53:64
  TRACK 88 AUDIO
    TITLE "LR_black_phrase_A02_088"
    INDEX 01 01:54:30
  TRACK 89 AUDIO
    TITLE "LR_black_phrase_A02_089"
    INDEX 01 01:56:56
  TRACK 90 AUDIO
    TITLE "LR_black_phrase_A02_090"
    INDEX 01 01:57:10
  TRACK 91 AUDIO
    TITLE "LR_black_phrase_A02_091"
    INDEX 01 01:59:37
  TRACK 92 AUDIO
    TITLE "LR_black_phrase_A02_092"
    INDEX 01 02:00:40
  TRACK 93 AUDIO
    TITLE "LR_black_phrase_A02_093"
    INDEX 01 02:01:75
  TRACK 94 AUDIO
    TITLE "LR_black_phrase_A02_094"
    INDEX 01 02:02:39
  TRACK 95 AUDIO
    TITLE "LR_black_phrase_A02_095"
    INDEX 01 02:05:16
  TRACK 96 AUDIO
    TITLE "LR_black_phrase_A02_096"
    INDEX 01 02:06:13
  TRACK 97 AUDIO
    TITLE "LR_black_phrase_A02_097"
    INDEX 01 02:08:14
  TRACK 98 AUDIO
    TITLE "LR_black_phrase_A02_098"
    INDEX 01 02:08:51
  TRACK 99 AUDIO
    TITLE "LR_black_phrase_A02_099"
    INDEX 01 02:11:26
  TRACK 100 AUDIO
    TITLE "LR_black_phrase_A02_100"
    INDEX 01 02:11:54
  TRACK 101 AUDIO
    TITLE "LR_black_phrase_A02_101"
    INDEX 01 02:14:29
  TRACK 102 AUDIO
    TITLE "LR_black_phrase_A02_102"
    INDEX 01 02:15:32
  TRACK 103 AUDIO
    TITLE "LR_black_phrase_A02_103"
    INDEX 01 02:16:47
  TRACK 104 AUDIO
    TITLE "LR_black_phrase_A02_104"
    INDEX 01 02:17:05
  TRACK 105 AUDIO
    TITLE "LR_black_phrase_A02_105"
    INDEX 01 02:20:13
  TRACK 106 AUDIO
    TITLE "LR_black_phrase_A02_106"
    INDEX 01 02:21:13
  TRACK 107 AUDIO
    TITLE "LR_black_phrase_A02_107"
    INDEX 01 02:23:45
  TRACK 108 AUDIO
    TITLE "LR_black_phrase_A02_108"
    INDEX 01 02:24:01
  TRACK 109 AUDIO
    TITLE "LR_black_phrase_A02_109"
    INDEX 01 02:26:40
  TRACK 110 AUDIO
    TITLE "LR_black_phrase_A02_110"
    INDEX 01 02:26:59
  TRACK 111 AUDIO
    TITLE "LR_black_phrase_A02_111"
    INDEX 01 02:29:22
  TRACK 112 AUDIO
    TITLE "LR_black_phrase_A02_112"
    INDEX 01 02:30:22
  TRACK 113 AUDIO
    TITLE "LR_black_phrase_A02_113"
    INDEX 01 02:31:49
  TRACK 114 AUDIO
    TITLE "LR_black_phrase_A02_114"
    INDEX 01 02:32:13
  TRACK 115 AUDIO
    TITLE "LR_black_phrase_A02_115"
    INDEX 01 02:33:38
  TRACK 116 AUDIO
    TITLE "LR_black_phrase_A02_116"
    INDEX 01 02:34:35
  TRACK 117 AUDIO
    TITLE "LR_black_phrase_A02_117"
    INDEX 01 02:36:20
  TRACK 118 AUDIO
    TITLE "LR_black_phrase_A02_118"
    INDEX 01 02:36:60
  TRACK 119 AUDIO
    TITLE "LR_black_phrase_A02_119"
    INDEX 01 02:38:54
  TRACK 120 AUDIO
    TITLE "LR_black_phrase_A02_120"
    INDEX 01 02:39:07
  TRACK 121 AUDIO
    TITLE "LR_black_phrase_A02_121"
    INDEX 01 02:40:75
  TRACK 122 AUDIO
    TITLE "LR_black_phrase_A02_122"
    INDEX 01 02:42:05
  TRACK 123 AUDIO
    TITLE "LR_black_phrase_A02_123"
    INDEX 01 02:43:13
  TRACK 124 AUDIO
    TITLE "LR_black_phrase_A02_124"
    INDEX 01 02:43:52
  TRACK 125 AUDIO
    TITLE "LR_black_phrase_A02_125"
    INDEX 01 02:45:08
  TRACK 126 AUDIO
    TITLE "LR_black_phrase_A02_126"
    INDEX 01 02:46:07
  TRACK 127 AUDIO
    TITLE "LR_black_phrase_A02_127"
    INDEX 01 02:47:34
  TRACK 128 AUDIO
    TITLE "LR_black_phrase_A02_128"
    INDEX 01 02:47:75
  TRACK 129 AUDIO
    TITLE "LR_black_phrase_A02_129"
    INDEX 01 02:49:35
  TRACK 130 AUDIO
    TITLE "LR_black_phrase_A02_130"
    INDEX 01 02:49:64
  TRACK 131 AUDIO
    TITLE "LR_black_phrase_A02_131"
    INDEX 01 02:51:24
  TRACK 132 AUDIO
    TITLE "LR_black_phrase_A02_132"
    INDEX 01 02:52:29
  TRACK 133 AUDIO
    TITLE "LR_black_phrase_A02_133"
    INDEX 01 02:53:42
  TRACK 134 AUDIO
    TITLE "LR_black_phrase_A02_134"
    INDEX 01 02:54:08
  TRACK 135 AUDIO
    TITLE "LR_black_phrase_A02_135"
    INDEX 01 02:55:37
  TRACK 136 AUDIO
    TITLE "LR_black_phrase_A02_136"
    INDEX 01 02:56:37
  TRACK 137 AUDIO
    TITLE "LR_black_phrase_A02_137"
    INDEX 01 02:59:51
  TRACK 138 AUDIO
    TITLE "LR_black_phrase_A02_138"
    INDEX 01 03:00:15
  TRACK 139 AUDIO
    TITLE "LR_black_phrase_A02_139"
    INDEX 01 03:02:67
  TRACK 140 AUDIO
    TITLE "LR_black_phrase_A02_140"
    INDEX 01 03:03:23
  TRACK 141 AUDIO
    TITLE "LR_black_phrase_A02_141"
    INDEX 01 03:05:73
  TRACK 142 AUDIO
    TITLE "LR_black_phrase_A02_142"
    INDEX 01 03:07:11
  TRACK 143 AUDIO
    TITLE "LR_black_phrase_A02_143"
    INDEX 01 03:08:40
  TRACK 144 AUDIO
    TITLE "LR_black_phrase_A02_144"
    INDEX 01 03:09:04
  TRACK 145 AUDIO
    TITLE "LR_black_phrase_A02_145"
    INDEX 01 03:12:57
  TRACK 146 AUDIO
    TITLE "LR_black_phrase_A02_146"
    INDEX 01 03:13:57
  TRACK 147 AUDIO
    TITLE "LR_black_phrase_A02_147"
    INDEX 01 03:15:65
  TRACK 148 AUDIO
    TITLE "LR_black_phrase_A02_148"
    INDEX 01 03:16:30
  TRACK 149 AUDIO
    TITLE "LR_black_phrase_A02_149"
    INDEX 01 03:18:29
  TRACK 150 AUDIO
    TITLE "LR_black_phrase_A02_150"
    INDEX 01 03:18:58
  TRACK 151 AUDIO
    TITLE "LR_black_phrase_A02_151"
    INDEX 01 03:20:55
  TRACK 152 AUDIO
    TITLE "LR_black_phrase_A02_152"
    INDEX 01 03:21:60
  TRACK 153 AUDIO
    TITLE "LR_black_phrase_A02_153"
    INDEX 01 03:22:73
  TRACK 154 AUDIO
    TITLE "LR_black_phrase_A02_154"
    INDEX 01 03:23:40
  TRACK 155 AUDIO
    TITLE "LR_black_phrase_A02_155"
    INDEX 01 03:25:50
  TRACK 156 AUDIO
    TITLE "LR_black_phrase_A02_156"
    INDEX 01 03:26:55
  TRACK 157 AUDIO
    TITLE "LR_black_phrase_A02_157"
    INDEX 01 03:28:56
  TRACK 158 AUDIO
    TITLE "LR_black_phrase_A02_158"
    INDEX 01 03:29:19
  TRACK 159 AUDIO
    TITLE "LR_black_phrase_A02_159"
    INDEX 01 03:31:23
  TRACK 160 AUDIO
    TITLE "LR_black_phrase_A02_160"
    INDEX 01 03:31:53
  TRACK 161 AUDIO
    TITLE "LR_black_phrase_A02_161"
    INDEX 01 03:33:56
  TRACK 162 AUDIO
    TITLE "LR_black_phrase_A02_162"
    INDEX 01 03:34:59
  TRACK 163 AUDIO
    TITLE "LR_black_phrase_A02_163"
    INDEX 01 03:36:17
  TRACK 164 AUDIO
    TITLE "LR_black_phrase_A02_164"
    INDEX 01 03:36:56
  TRACK 165 AUDIO
    TITLE "LR_black_phrase_A02_165"
    INDEX 01 03:37:67
  TRACK 166 AUDIO
    TITLE "LR_black_phrase_A02_166"
    INDEX 01 03:38:66
  TRACK 167 AUDIO
    TITLE "LR_black_phrase_A02_167"
    INDEX 01 03:40:63
  TRACK 168 AUDIO
    TITLE "LR_black_phrase_A02_168"
    INDEX 01 03:41:30
  TRACK 169 AUDIO
    TITLE "LR_black_phrase_A02_169"
    INDEX 01 03:43:21
  TRACK 170 AUDIO
    TITLE "LR_black_phrase_A02_170"
    INDEX 01 03:43:52
  TRACK 171 AUDIO
    TITLE "LR_black_phrase_A02_171"
    INDEX 01 03:45:43
  TRACK 172 AUDIO
    TITLE "LR_black_phrase_A02_172"
    INDEX 01 03:46:46
  TRACK 173 AUDIO
    TITLE "LR_black_phrase_A02_173"
    INDEX 01 03:47:56
  TRACK 174 AUDIO
    TITLE "LR_black_phrase_A02_174"
    INDEX 01 03:48:20
  TRACK 175 AUDIO
    TITLE "LR_black_phrase_A02_175"
    INDEX 01 03:50:42
  TRACK 176 AUDIO
    TITLE "LR_black_phrase_A02_176"
    INDEX 01 03:51:42
  TRACK 177 AUDIO
    TITLE "LR_black_phrase_A02_177"
    INDEX 01 03:54:30
  TRACK 178 AUDIO
    TITLE "LR_black_phrase_A02_178"
    INDEX 01 03:54:69
  TRACK 179 AUDIO
    TITLE "LR_black_phrase_A02_179"
    INDEX 01 03:57:15
  TRACK 180 AUDIO
    TITLE "LR_black_phrase_A02_180"
    INDEX 01 03:57:42
  TRACK 181 AUDIO
    TITLE "LR_black_phrase_A02_181"
    INDEX 01 03:59:63
  TRACK 182 AUDIO
    TITLE "LR_black_phrase_A02_182"
    INDEX 01 04:00:64
  TRACK 183 AUDIO
    TITLE "LR_black_phrase_A02_183"
    INDEX 01 04:02:28
  TRACK 184 AUDIO
    TITLE "LR_black_phrase_A02_184"
    INDEX 01 04:02:61
  TRACK 185 AUDIO
    TITLE "LR_black_phrase_A02_185"
    INDEX 01 04:05:42
  TRACK 186 AUDIO
    TITLE "LR_black_phrase_A02_186"
    INDEX 01 04:06:43
  TRACK 187 AUDIO
    TITLE "LR_black_phrase_A02_187"
    INDEX 01 04:08:28
  TRACK 188 AUDIO
    TITLE "LR_black_phrase_A02_188"
    INDEX 01 04:08:68
  TRACK 189 AUDIO
    TITLE "LR_black_phrase_A02_189"
    INDEX 01 04:10:63
  TRACK 190 AUDIO
    TITLE "LR_black_phrase_A02_190"
    INDEX 01 04:11:17
  TRACK 191 AUDIO
    TITLE "LR_black_phrase_A02_191"
    INDEX 01 04:13:14
  TRACK 192 AUDIO
    TITLE "LR_black_phrase_A02_192"
    INDEX 01 04:14:17
  TRACK 193 AUDIO
    TITLE "LR_black_phrase_A02_193"
    INDEX 01 04:15:25
  TRACK 194 AUDIO
    TITLE "LR_black_phrase_A02_194"
    INDEX 01 04:15:60
  TRACK 195 AUDIO
    TITLE "LR_black_phrase_A02_195"
    INDEX 01 04:16:75
  TRACK 196 AUDIO
    TITLE "LR_black_phrase_A02_196"
    INDEX 01 04:17:74
  TRACK 197 AUDIO
    TITLE "LR_black_phrase_A02_197"
    INDEX 01 04:20:41
  TRACK 198 AUDIO
    TITLE "LR_black_phrase_A02_198"
    INDEX 01 04:21:04
  TRACK 199 AUDIO
    TITLE "LR_black_phrase_A02_199"
    INDEX 01 04:23:55
  TRACK 200 AUDIO
    TITLE "LR_black_phrase_A02_200"
    INDEX 01 04:24:10
  TRACK 201 AUDIO
    TITLE "LR_black_phrase_A02_201"
    INDEX 01 04:26:62
  TRACK 202 AUDIO
    TITLE "LR_black_phrase_A02_202"
    INDEX 01 04:27:65
  TRACK 203 AUDIO
    TITLE "LR_black_phrase_A02_203"
    INDEX 01 04:29:09
  TRACK 204 AUDIO
    TITLE "LR_black_phrase_A02_204"
    INDEX 01 04:29:44
  TRACK 205 AUDIO
    TITLE "LR_black_phrase_A02_205"
    INDEX 01 04:31:39
  TRACK 206 AUDIO
    TITLE "LR_black_phrase_A02_206"
    INDEX 01 04:32:39
  TRACK 207 AUDIO
    TITLE "LR_black_phrase_A02_207"
    INDEX 01 04:33:71
  TRACK 208 AUDIO
    TITLE "LR_black_phrase_A02_208"
    INDEX 01 04:34:36
  TRACK 209 AUDIO
    TITLE "LR_black_phrase_A02_209"
    INDEX 01 04:36:37
  TRACK 210 AUDIO
    TITLE "LR_black_phrase_A02_210"
    INDEX 01 04:36:64
  TRACK 211 AUDIO
    TITLE "LR_black_phrase_A02_211"
    INDEX 01 04:38:59
  TRACK 212 AUDIO
    TITLE "LR_black_phrase_A02_212"
    INDEX 01 04:39:64
  TRACK 213 AUDIO
    TITLE "LR_black_phrase_A02_213"
    INDEX 01 04:41:20
  TRACK 214 AUDIO
    TITLE "LR_black_phrase_A02_214"
    INDEX 01 04:41:61
  TRACK 215 AUDIO
    TITLE "LR_black_phrase_A02_215"
    INDEX 01 04:43:52
  TRACK 216 AUDIO
    TITLE "LR_black_phrase_A02_216"
    INDEX 01 04:44:50
  TRACK 217 AUDIO
    TITLE "LR_black_phrase_A02_217"
    INDEX 01 04:47:07
  TRACK 218 AUDIO
    TITLE "LR_black_phrase_A02_218"
    INDEX 01 04:47:38
  TRACK 219 AUDIO
    TITLE "LR_black_phrase_A02_219"
    INDEX 01 04:49:70
  TRACK 220 AUDIO
    TITLE "LR_black_phrase_A02_220"
    INDEX 01 04:50:17
  TRACK 221 AUDIO
    TITLE "LR_black_phrase_A02_221"
    INDEX 01 04:52:49
  TRACK 222 AUDIO
    TITLE "LR_black_phrase_A02_222"
    INDEX 01 04:53:55
  TRACK 223 AUDIO
    TITLE "LR_black_phrase_A02_223"
    INDEX 01 04:54:74
  TRACK 224 AUDIO
    TITLE "LR_black_phrase_A02_224"
    INDEX 01 04:55:38
  TRACK 225 AUDIO
    TITLE "LR_black_phrase_A02_225"
    INDEX 01 04:56:74
  TRACK 226 AUDIO
    TITLE "LR_black_phrase_A02_226"
    INDEX 01 04:58:05
  TRACK 227 AUDIO
    TITLE "LR_black_phrase_A02_227"
    INDEX 01 05:01:38
  TRACK 228 AUDIO
    TITLE "LR_black_phrase_A02_228"
    INDEX 01 05:02:03
  TRACK 229 AUDIO
    TITLE "LR_black_phrase_A02_229"
    INDEX 01 05:05:21
  TRACK 230 AUDIO
    TITLE "LR_black_phrase_A02_230"
    INDEX 01 05:05:48
  TRACK 231 AUDIO
    TITLE "LR_black_phrase_A02_231"
    INDEX 01 05:08:66
  TRACK 232 AUDIO
    TITLE "LR_black_phrase_A02_232"
    INDEX 01 05:09:67
  TRACK 233 AUDIO
    TITLE "LR_black_phrase_A02_233"
    INDEX 01 05:11:19
  TRACK 234 AUDIO
    TITLE "LR_black_phrase_A02_234"
    INDEX 01 05:11:54
  TRACK 235 AUDIO
    TITLE "LR_black_phrase_A02_235"
    INDEX 01 05:13:16
  TRACK 236 AUDIO
    TITLE "LR_black_phrase_A02_236"
    INDEX 01 05:14:18
  TRACK 237 AUDIO
    TITLE "LR_black_phrase_A02_237"
    INDEX 01 05:16:38
  TRACK 238 AUDIO
    TITLE "LR_black_phrase_A02_238"
    INDEX 01 05:16:69
  TRACK 239 AUDIO
    TITLE "LR_black_phrase_A02_239"
    INDEX 01 05:19:38
  TRACK 240 AUDIO
    TITLE "LR_black_phrase_A02_240"
    INDEX 01 05:19:64
  TRACK 241 AUDIO
    TITLE "LR_black_phrase_A02_241"
    INDEX 01 05:22:31
  TRACK 242 AUDIO
    TITLE "LR_black_phrase_A02_242"
    INDEX 01 05:23:36
  TRACK 243 AUDIO
    TITLE "LR_black_phrase_A02_243"
    INDEX 01 05:24:51
  TRACK 244 AUDIO
    TITLE "LR_black_phrase_A02_244"
    INDEX 01 05:25:15
  TRACK 245 AUDIO
    TITLE "LR_black_phrase_A02_245"
    INDEX 01 05:27:48
  TRACK 246 AUDIO
    TITLE "LR_black_phrase_A02_246"
    INDEX 01 05:28:45
  TRACK 247 AUDIO
    TITLE "LR_black_phrase_A02_247"
    INDEX 01 05:30:38
  TRACK 248 AUDIO
    TITLE "LR_black_phrase_A02_248"
    INDEX 01 05:31:02
  TRACK 249 AUDIO
    TITLE "LR_black_phrase_A02_249"
    INDEX 01 05:33:05
  TRACK 250 AUDIO
    TITLE "LR_black_phrase_A02_250"
    INDEX 01 05:33:34
  TRACK 251 AUDIO
    TITLE "LR_black_phrase_A02_251"
    INDEX 01 05:35:37
  TRACK 252 AUDIO
    TITLE "LR_black_phrase_A02_252"
    INDEX 01 05:36:43
  TRACK 253 AUDIO
    TITLE "LR_black_phrase_A02_253"
    INDEX 01 05:37:52
  TRACK 254 AUDIO
    TITLE "LR_black_phrase_A02_254"
    INDEX 01 05:38:18
  TRACK 255 AUDIO
    TITLE "LR_black_phrase_A02_255"
    INDEX 01 05:41:01
  TRACK 256 AUDIO
    TITLE "LR_black_phrase_A02_256"
    INDEX 01 05:41:75
  TRACK 257 AUDIO
    TITLE "LR_black_phrase_A02_257"
    INDEX 01 05:44:09
  TRACK 258 AUDIO
    TITLE "LR_black_phrase_A02_258"
    INDEX 01 05:44:50
  TRACK 259 AUDIO
    TITLE "LR_black_phrase_A02_259"
    INDEX 01 05:47:09
  TRACK 260 AUDIO
    TITLE "LR_black_phrase_A02_260"
    INDEX 01 05:47:37
  TRACK 261 AUDIO
    TITLE "LR_black_phrase_A02_261"
    INDEX 01 05:49:71
  TRACK 262 AUDIO
    TITLE "LR_black_phrase_A02_262"
    INDEX 01 05:50:74
  TRACK 263 AUDIO
    TITLE "LR_black_phrase_A02_263"
    INDEX 01 05:52:40
  TRACK 264 AUDIO
    TITLE "LR_black_phrase_A02_264"
    INDEX 01 05:53:02
  TRACK 265 AUDIO
    TITLE "LR_black_phrase_A02_265"
    INDEX 01 05:55:34
  TRACK 266 AUDIO
    TITLE "LR_black_phrase_A02_266"
    INDEX 01 05:56:32
  TRACK 267 AUDIO
    TITLE "LR_black_phrase_A02_267"
    INDEX 01 05:58:68
  TRACK 268 AUDIO
    TITLE "LR_black_phrase_A02_268"
    INDEX 01 05:59:30
  TRACK 269 AUDIO
    TITLE "LR_black_phrase_A02_269"
    INDEX 01 06:01:60
  TRACK 270 AUDIO
    TITLE "LR_black_phrase_A02_270"
    INDEX 01 06:02:13
  TRACK 271 AUDIO
    TITLE "LR_black_phrase_A02_271"
    INDEX 01 06:04:43
  TRACK 272 AUDIO
    TITLE "LR_black_phrase_A02_272"
    INDEX 01 06:05:42
  TRACK 273 AUDIO
    TITLE "LR_black_phrase_A02_273"
    INDEX 01 06:06:67
  TRACK 274 AUDIO
    TITLE "LR_black_phrase_A02_274"
    INDEX 01 06:07:28
  TRACK 275 AUDIO
    TITLE "LR_black_phrase_A02_275"
    INDEX 01 06:10:14
  TRACK 276 AUDIO
    TITLE "LR_black_phrase_A02_276"
    INDEX 01 06:11:15
  TRACK 277 AUDIO
    TITLE "LR_black_phrase_A02_277"
    INDEX 01 06:13:40
  TRACK 278 AUDIO
    TITLE "LR_black_phrase_A02_278"
    INDEX 01 06:14:02
  TRACK 279 AUDIO
    TITLE "LR_black_phrase_A02_279"
    INDEX 01 06:16:36
  TRACK 280 AUDIO
    TITLE "LR_black_phrase_A02_280"
    INDEX 01 06:16:60
  TRACK 281 AUDIO
    TITLE "LR_black_phrase_A02_281"
    INDEX 01 06:19:19
  TRACK 282 AUDIO
    TITLE "LR_black_phrase_A02_282"
    INDEX 01 06:20:14
  TRACK 283 AUDIO
    TITLE "LR_black_phrase_A02_283"
    INDEX 01 06:21:47
  TRACK 284 AUDIO
    TITLE "LR_black_phrase_A02_284"
    INDEX 01 06:22:07
  TRACK 285 AUDIO
    TITLE "LR_black_phrase_A02_285"
    INDEX 01 06:25:43
  TRACK 286 AUDIO
    TITLE "LR_black_phrase_A02_286"
    INDEX 01 06:26:43
  TRACK 287 AUDIO
    TITLE "LR_black_phrase_A02_287"
    INDEX 01 06:28:49
  TRACK 288 AUDIO
    TITLE "LR_black_phrase_A02_288"
    INDEX 01 06:29:10
  TRACK 289 AUDIO
    TITLE "LR_black_phrase_A02_289"
    INDEX 01 06:31:28
  TRACK 290 AUDIO
    TITLE "LR_black_phrase_A02_290"
    INDEX 01 06:31:46
  TRACK 291 AUDIO
    TITLE "LR_black_phrase_A02_291"
    INDEX 01 06:33:64
  TRACK 292 AUDIO
    TITLE "LR_black_phrase_A02_292"
    INDEX 01 06:34:66
  TRACK 293 AUDIO
    TITLE "LR_black_phrase_A02_293"
    INDEX 01 06:36:06
  TRACK 294 AUDIO
    TITLE "LR_black_phrase_A02_294"
    INDEX 01 06:36:45
  TRACK 295 AUDIO
    TITLE "LR_black_phrase_A02_295"
    INDEX 01 06:38:69
  TRACK 296 AUDIO
    TITLE "LR_black_phrase_A02_296"
    INDEX 01 06:39:71
  TRACK 297 AUDIO
    TITLE "LR_black_phrase_A02_297"
    INDEX 01 06:42:10
  TRACK 298 AUDIO
    TITLE "LR_black_phrase_A02_298"
    INDEX 01 06:42:53
  TRACK 299 AUDIO
    TITLE "LR_black_phrase_A02_299"
    INDEX 01 06:45:16
  TRACK 300 AUDIO
    TITLE "LR_black_phrase_A02_300"
    INDEX 01 06:45:46
  TRACK 301 AUDIO
    TITLE "LR_black_phrase_A02_301"
    INDEX 01 06:48:11
